<?xml version="1.0" encoding="UTF-8"?>
<svg width="22px" height="14px" viewBox="0 0 22 14" version="1.1" xmlns="http://www.w3.org/2000/svg" xmlns:xlink="http://www.w3.org/1999/xlink">
    <title>icon-aa</title>
    <g id="icon-aa" stroke="none" stroke-width="1" fill="none" fill-rule="evenodd">
        <path d="M20.2661133,13.6005859 C20.6147461,13.6005859 20.8914388,13.505127 21.0961914,13.314209 C21.300944,13.123291 21.4033203,12.8673503 21.4033203,12.5463867 C21.4033203,12.3250326 21.3590495,12.0898438 21.2705078,11.8408203 L17.7592773,2.25341797 C17.6098633,1.83284505 17.3898926,1.51879883 17.0993652,1.3112793 C16.8088379,1.10375977 16.4339193,1 15.9746094,1 C15.1057943,1 14.5247396,1.41503906 14.2314453,2.24511719 L10.6870117,11.9072266 C10.6040039,12.1507161 10.5625,12.3720703 10.5625,12.5712891 C10.5625,12.8867188 10.6593424,13.1371257 10.8530273,13.3225098 C11.0467122,13.5078939 11.3123372,13.6005859 11.6499023,13.6005859 C11.9763997,13.6005859 12.230957,13.5258789 12.4135742,13.3764648 C12.5961914,13.2270508 12.7373047,12.9835612 12.8369141,12.6459961 L13.6503906,10.3300781 L18.2739258,10.3300781 L19.0874023,12.6459961 C19.1814779,12.9835612 19.3212077,13.2270508 19.5065918,13.3764648 C19.6919759,13.5258789 19.9451497,13.6005859 20.2661133,13.6005859 Z M17.7675781,8.5703125 L14.1733398,8.5703125 L15.949707,3.32421875 L15.9995117,3.32421875 L17.7675781,8.5703125 Z M8.20507812,13.5839844 C8.48730469,13.5839844 8.7183431,13.4995931 8.89819336,13.3308105 C9.07804362,13.162028 9.16796875,12.9420573 9.16796875,12.6708984 C9.16796875,12.5602214 9.15551758,12.4523112 9.13061523,12.347168 C9.10571289,12.2420247 9.0711263,12.1258138 9.02685547,11.9985352 L6.56152344,5.37451172 C6.42317708,4.99267578 6.23087565,4.71044922 5.98461914,4.52783203 C5.73836263,4.34521484 5.42985026,4.25390625 5.05908203,4.25390625 C4.69938151,4.25390625 4.40055339,4.34383138 4.16259766,4.52368164 C3.92464193,4.7035319 3.73649089,4.98714193 3.59814453,5.37451172 L1.1328125,11.9985352 C1.08854167,12.1092122 1.05533854,12.2240397 1.03320312,12.3430176 C1.01106771,12.4619954 1,12.5712891 1,12.6708984 C1,12.953125 1.0871582,13.1758626 1.26147461,13.3391113 C1.43579102,13.50236 1.67236328,13.5839844 1.97119141,13.5839844 C2.21468099,13.5839844 2.4152832,13.5148112 2.57299805,13.3764648 C2.73071289,13.2381185 2.85384115,13.0139974 2.94238281,12.7041016 L3.46533203,11.1269531 L6.68603516,11.1269531 L7.20068359,12.7207031 C7.28922526,13.030599 7.41235352,13.2519531 7.57006836,13.3847656 C7.7277832,13.5175781 7.93945312,13.5839844 8.20507812,13.5839844 Z M6.23779297,9.66601562 L3.88867188,9.66601562 L4.97607422,6.20458984 L5.13378906,6.20458984 L6.23779297,9.66601562 Z" id="ô€…" fill="#E2B437" fill-rule="nonzero"></path>
    </g>
</svg>