<?xml version="1.0" encoding="UTF-8"?>
<svg width="21px" height="20px" viewBox="0 0 21 20" version="1.1" xmlns="http://www.w3.org/2000/svg" xmlns:xlink="http://www.w3.org/1999/xlink">
    <title>icon.moon.circle</title>
    <g id="icon.moon.circle" stroke="none" stroke-width="1" fill="none" fill-rule="evenodd">
        <path d="M10.7158203,18.8056641 C11.9222005,18.8056641 13.0566406,18.5773926 14.1191406,18.1208496 C15.1816406,17.6643066 16.116862,17.0306803 16.9248047,16.2199707 C17.7327474,15.4092611 18.3663737,14.4726562 18.8256836,13.4101562 C19.2849935,12.3476562 19.5146484,11.2132161 19.5146484,10.0068359 C19.5146484,8.80045573 19.2849935,7.66739909 18.8256836,6.60766602 C18.3663737,5.54793294 17.7327474,4.61271159 16.9248047,3.80200195 C16.116862,2.99129232 15.1816406,2.35766602 14.1191406,1.90112305 C13.0566406,1.44458008 11.9194336,1.21630859 10.7075195,1.21630859 C9.50113932,1.21630859 8.36808268,1.44458008 7.30834961,1.90112305 C6.24861654,2.35766602 5.31477865,2.99129232 4.50683594,3.80200195 C3.69889323,4.61271159 3.06526693,5.54793294 2.60595703,6.60766602 C2.14664714,7.66739909 1.91699219,8.80045573 1.91699219,10.0068359 C1.91699219,11.2132161 2.14664714,12.3476562 2.60595703,13.4101562 C3.06526693,14.4726562 3.69889323,15.4092611 4.50683594,16.2199707 C5.31477865,17.0306803 6.25,17.6643066 7.3125,18.1208496 C8.375,18.5773926 9.5094401,18.8056641 10.7158203,18.8056641 Z M10.7158203,16.5478516 C9.80826823,16.5478516 8.96020508,16.379069 8.17163086,16.0415039 C7.38305664,15.7039388 6.68994141,15.2349447 6.09228516,14.6345215 C5.49462891,14.0340983 5.02701823,13.3395996 4.68945312,12.5510254 C4.35188802,11.7624512 4.18310547,10.914388 4.18310547,10.0068359 C4.18310547,9.10481771 4.35188802,8.25813802 4.68945312,7.46679688 C5.02701823,6.67545573 5.49324544,5.98095703 6.08813477,5.38330078 C6.68302409,4.78564453 7.37613932,4.31803385 8.16748047,3.98046875 C8.95882161,3.64290365 9.8055013,3.47412109 10.7075195,3.47412109 C11.6150716,3.47412109 12.4631348,3.64290365 13.251709,3.98046875 C14.0402832,4.31803385 14.7347819,4.78564453 15.3352051,5.38330078 C15.9356283,5.98095703 16.4046224,6.67545573 16.7421875,7.46679688 C17.0797526,8.25813802 17.2485352,9.10481771 17.2485352,10.0068359 C17.2485352,10.914388 17.0811361,11.7624512 16.7463379,12.5510254 C16.4115397,13.3395996 15.943929,14.0340983 15.3435059,14.6345215 C14.7430827,15.2349447 14.0472005,15.7039388 13.2558594,16.0415039 C12.4645182,16.379069 11.6178385,16.5478516 10.7158203,16.5478516 Z M10.8818359,14.5224609 C11.4794922,14.5224609 12.0425618,14.4104004 12.5710449,14.1862793 C13.099528,13.9621582 13.5629883,13.6564128 13.9614258,13.269043 C14.3598633,12.8816732 14.6669922,12.4417318 14.8828125,11.9492188 C14.9160156,11.8772786 14.938151,11.8108724 14.9492188,11.75 C14.9602865,11.6891276 14.9658203,11.6393229 14.9658203,11.6005859 C14.9658203,11.5065104 14.938151,11.4304199 14.8828125,11.3723145 C14.827474,11.314209 14.7583008,11.2851562 14.675293,11.2851562 C14.5867513,11.2851562 14.4733073,11.3155924 14.3349609,11.3764648 C14.1910807,11.4373372 14.0001628,11.4899089 13.762207,11.5341797 C13.5242513,11.5784505 13.2779948,11.6005859 13.0234375,11.6005859 C12.2874349,11.6005859 11.6510417,11.4580892 11.1142578,11.1730957 C10.577474,10.8881022 10.1610514,10.4827474 9.86499023,9.95703125 C9.56892904,9.4313151 9.42089844,8.80598958 9.42089844,8.08105469 C9.42089844,7.81542969 9.44718424,7.54427083 9.49975586,7.26757812 C9.55232747,6.99088542 9.61735026,6.76676432 9.69482422,6.59521484 C9.72802734,6.52880859 9.75292969,6.46931966 9.76953125,6.41674805 C9.78613281,6.36417643 9.79443359,6.31575521 9.79443359,6.27148438 C9.79443359,6.18847656 9.76538086,6.11653646 9.70727539,6.05566406 C9.64916992,5.99479167 9.5703125,5.96435547 9.47070312,5.96435547 C9.43196615,5.96435547 9.38354492,5.96988932 9.32543945,5.98095703 C9.26733398,5.99202474 9.20784505,6.0086263 9.14697266,6.03076172 C8.60465495,6.24658203 8.13151042,6.56477865 7.72753906,6.98535156 C7.32356771,7.40592448 7.00952148,7.89013672 6.78540039,8.43798828 C6.5612793,8.98583984 6.44921875,9.55859375 6.44921875,10.15625 C6.44921875,10.7871094 6.55989583,11.3695475 6.78125,11.9035645 C7.00260417,12.4375814 7.31388346,12.8996582 7.71508789,13.2897949 C8.11629232,13.6799316 8.58528646,13.9829102 9.12207031,14.1987305 C9.65885417,14.4145508 10.2454427,14.5224609 10.8818359,14.5224609 Z" id="􀆻" fill="#E2B437" fill-rule="nonzero"></path>
    </g>
</svg>