<?xml version="1.0" encoding="UTF-8"?>
<svg width="105px" height="104px" viewBox="0 0 105 104" version="1.1" xmlns="http://www.w3.org/2000/svg" xmlns:xlink="http://www.w3.org/1999/xlink">
    <title>step.exclamationmark</title>
    <g id="Page-1" stroke="none" stroke-width="1" fill="none" fill-rule="evenodd" fill-opacity="0.6">
        <path d="M52.487793,103.357422 C59.5841471,103.357422 66.2410482,102.014648 72.4584961,99.3291016 C78.675944,96.6435547 84.152832,92.9244792 88.8891602,88.171875 C93.6254883,83.4192708 97.3445638,77.9342448 100.046387,71.7167969 C102.74821,65.499349 104.099121,58.8424479 104.099121,51.7460938 C104.099121,44.6822917 102.74821,38.0416667 100.046387,31.8242188 C97.3445638,25.6067708 93.6254883,20.1217448 88.8891602,15.3691406 C84.152832,10.6165365 78.667806,6.89746094 72.434082,4.21191406 C66.2003581,1.52636719 59.5515951,0.18359375 52.487793,0.18359375 C45.4239909,0.18359375 38.7752279,1.52636719 32.5415039,4.21191406 C26.3077799,6.89746094 20.8227539,10.6165365 16.0864258,15.3691406 C11.3500977,20.1217448 7.63916016,25.6067708 4.95361328,31.8242188 C2.26806641,38.0416667 0.925292969,44.6822917 0.925292969,51.7460938 C0.925292969,58.8424479 2.26806641,65.499349 4.95361328,71.7167969 C7.63916016,77.9342448 11.3582357,83.4192708 16.1108398,88.171875 C20.863444,92.9244792 26.3484701,96.6435547 32.565918,99.3291016 C38.7833659,102.014648 45.4239909,103.357422 52.487793,103.357422 Z M52.487793,90.515625 C47.1492513,90.515625 42.1362305,89.5065104 37.4487305,87.4882812 C32.7612305,85.4700521 28.6433919,82.694987 25.0952148,79.1630859 C21.5470378,75.6311849 18.7801107,71.5214844 16.7944336,66.8339844 C14.8087565,62.1464844 13.815918,57.1171875 13.815918,51.7460938 C13.815918,46.375 14.8087565,41.3538411 16.7944336,36.6826172 C18.7801107,32.0113932 21.5470378,27.9016927 25.0952148,24.3535156 C28.6433919,20.8053385 32.7530924,18.0302734 37.4243164,16.0283203 C42.0955404,14.0263672 47.1166992,13.0253906 52.487793,13.0253906 C57.8588867,13.0253906 62.8800456,14.0263672 67.5512695,16.0283203 C72.2224935,18.0302734 76.332194,20.8053385 79.8803711,24.3535156 C83.4285482,27.9016927 86.2117513,32.0113932 88.2299805,36.6826172 C90.2482096,41.3538411 91.2573242,46.375 91.2573242,51.7460938 C91.2573242,57.1171875 90.2563477,62.1464844 88.2543945,66.8339844 C86.2524414,71.5214844 83.4773763,75.6311849 79.9291992,79.1630859 C76.3810221,82.694987 72.2631836,85.4700521 67.5756836,87.4882812 C62.8881836,89.5065104 57.8588867,90.515625 52.487793,90.515625 Z M52.5366211,58.6796875 C55.8243815,58.6796875 57.5333659,56.9869792 57.6635742,53.6015625 L58.4448242,33.484375 C58.5424805,31.7591146 58.0297852,30.351237 56.9067383,29.2607422 C55.7836914,28.1702474 54.2944336,27.625 52.4389648,27.625 C50.6160482,27.625 49.1430664,28.1702474 48.0200195,29.2607422 C46.8969727,30.351237 46.3842773,31.7428385 46.4819336,33.4355469 L47.2143555,53.6503906 C47.3771159,57.0032552 49.1512044,58.6796875 52.5366211,58.6796875 Z M52.5366211,75.4277344 C54.3595378,75.4277344 55.8894857,74.890625 57.1264648,73.8164062 C58.363444,72.7421875 58.9819336,71.3261719 58.9819336,69.5683594 C58.9819336,67.8105469 58.363444,66.3945312 57.1264648,65.3203125 C55.8894857,64.2460938 54.3595378,63.7089844 52.5366211,63.7089844 C50.6811523,63.7089844 49.1267904,64.2460938 47.8735352,65.3203125 C46.6202799,66.3945312 45.9936523,67.8105469 45.9936523,69.5683594 C45.9936523,71.3261719 46.6202799,72.7421875 47.8735352,73.8164062 C49.1267904,74.890625 50.6811523,75.4277344 52.5366211,75.4277344 Z" id="step.exclamationmark" fill="#111111" fill-rule="nonzero"></path>
    </g>
</svg>