<?xml version="1.0" encoding="UTF-8"?>
<svg width="31px" height="30px" viewBox="0 0 31 30" version="1.1" xmlns="http://www.w3.org/2000/svg" xmlns:xlink="http://www.w3.org/1999/xlink">
    <title>step.3</title>
    <g id="step.3" stroke="none" stroke-width="1" fill="none" fill-rule="evenodd">
        <path d="M15.4328613,27.9550781 C17.1825358,27.9550781 18.826416,27.6234538 20.364502,26.9602051 C21.9025879,26.2969564 23.2596029,25.3793945 24.4355469,24.2075195 C25.6114909,23.0356445 26.5310872,21.6786296 27.1943359,20.1364746 C27.8575846,18.5943197 28.189209,16.9484049 28.189209,15.1987305 C28.189209,13.457194 27.8575846,11.8153483 27.1943359,10.2731934 C26.5310872,8.73103841 25.6114909,7.37402344 24.4355469,6.20214844 C23.2596029,5.03027344 21.9005534,4.11067708 20.3583984,3.44335938 C18.8162435,2.77604167 17.1703288,2.44238281 15.4206543,2.44238281 C13.6791178,2.44238281 12.0372721,2.77604167 10.4951172,3.44335938 C8.95296224,4.11067708 7.59594727,5.03027344 6.42407227,6.20214844 C5.25219727,7.37402344 4.33463542,8.73103841 3.67138672,10.2731934 C3.00813802,11.8153483 2.67651367,13.457194 2.67651367,15.1987305 C2.67651367,16.9484049 3.00813802,18.5943197 3.67138672,20.1364746 C4.33463542,21.6786296 5.25423177,23.0356445 6.43017578,24.2075195 C7.60611979,25.3793945 8.96313477,26.2969564 10.5012207,26.9602051 C12.0393066,27.6234538 13.6831868,27.9550781 15.4328613,27.9550781 Z M15.4328613,25.0986328 C14.0656738,25.0986328 12.7839355,24.8422852 11.5876465,24.3295898 C10.3913574,23.8168945 9.34155273,23.1088867 8.43823242,22.2055664 C7.53491211,21.3022461 6.8269043,20.2524414 6.31420898,19.0561523 C5.80151367,17.8598633 5.54516602,16.574056 5.54516602,15.1987305 C5.54516602,13.831543 5.80151367,12.5498047 6.31420898,11.3535156 C6.8269043,10.1572266 7.5328776,9.10538737 8.43212891,8.19799805 C9.33138021,7.29060872 10.3791504,6.58260091 11.5754395,6.07397461 C12.7717285,5.56534831 14.0534668,5.31103516 15.4206543,5.31103516 C16.7959798,5.31103516 18.0817871,5.56534831 19.2780762,6.07397461 C20.4743652,6.58260091 21.5262044,7.29060872 22.4335938,8.19799805 C23.3409831,9.10538737 24.0489909,10.1572266 24.5576172,11.3535156 C25.0662435,12.5498047 25.3205566,13.831543 25.3205566,15.1987305 C25.3205566,16.574056 25.0662435,17.8598633 24.5576172,19.0561523 C24.0489909,20.2524414 23.3430176,21.3022461 22.4396973,22.2055664 C21.536377,23.1088867 20.4845378,23.8168945 19.2841797,24.3295898 C18.0838216,24.8422852 16.8000488,25.0986328 15.4328613,25.0986328 Z M15.4084473,20.9360352 C16.7837728,20.9360352 17.8681641,20.6328939 18.6616211,20.0266113 C19.4550781,19.4203288 19.8518066,18.6289062 19.8518066,17.6523438 C19.8518066,16.952474 19.619873,16.3502604 19.1560059,15.8457031 C18.6921387,15.3411458 18.1062012,15.0603841 17.3981934,15.003418 L17.3981934,14.8691406 C17.9841309,14.7877604 18.4825846,14.5090332 18.8935547,14.032959 C19.3045247,13.5568848 19.5100098,13.0218099 19.5100098,12.4277344 C19.5100098,11.5569661 19.1376953,10.8489583 18.3930664,10.3037109 C17.6484375,9.75846354 16.6779785,9.48583984 15.4816895,9.48583984 C14.4400228,9.48583984 13.563151,9.68522135 12.8510742,10.0839844 C12.1389974,10.4827474 11.6893717,11.0279948 11.5021973,11.7197266 C11.4777832,11.8173828 11.4574382,11.9089355 11.4411621,11.9943848 C11.4248861,12.079834 11.416748,12.1754557 11.416748,12.28125 C11.416748,12.5904948 11.5225423,12.8407389 11.7341309,13.0319824 C11.9457194,13.2232259 12.2224121,13.3188477 12.564209,13.3188477 C13.0362142,13.3188477 13.3861491,13.0991211 13.6140137,12.659668 C13.760498,12.285319 13.9903971,11.9903158 14.3037109,11.7746582 C14.6170247,11.5590007 14.9974772,11.4511719 15.4450684,11.4511719 C15.9333496,11.4511719 16.3178711,11.5630697 16.5986328,11.7868652 C16.8793945,12.0106608 17.0197754,12.3178711 17.0197754,12.7084961 C17.0197754,13.1153971 16.869222,13.4470215 16.5681152,13.7033691 C16.2670085,13.9597168 15.8763835,14.0878906 15.3962402,14.0878906 L14.8713379,14.0878906 C14.5458171,14.0878906 14.2854004,14.1774089 14.0900879,14.3564453 C13.8947754,14.5354818 13.7971191,14.7796224 13.7971191,15.0888672 C13.7971191,15.3818359 13.8947754,15.6178385 14.0900879,15.796875 C14.2854004,15.9759115 14.5458171,16.0654297 14.8713379,16.0654297 L15.4572754,16.0654297 C16.0187988,16.0654297 16.4684245,16.1976725 16.8061523,16.4621582 C17.1438802,16.7266439 17.3127441,17.0786133 17.3127441,17.5180664 C17.3127441,17.9331055 17.1418457,18.2687988 16.8000488,18.5251465 C16.458252,18.7814941 16.0106608,18.909668 15.4572754,18.909668 C14.928304,18.909668 14.4990234,18.7977702 14.1694336,18.5739746 C13.8398438,18.350179 13.5977376,18.0633138 13.4431152,17.7133789 C13.2071126,17.2820638 12.8531087,17.0664062 12.3811035,17.0664062 C12.0393066,17.0664062 11.7646484,17.162028 11.5571289,17.3532715 C11.3496094,17.544515 11.2458496,17.7988281 11.2458496,18.1162109 C11.2458496,18.3033854 11.2743327,18.4864909 11.3312988,18.6655273 C11.5347493,19.3409831 12.0128581,19.888265 12.765625,20.307373 C13.5183919,20.7264811 14.3993327,20.9360352 15.4084473,20.9360352 Z" id="􀀾" fill="#E2B437" fill-rule="nonzero"></path>
    </g>
</svg>