<?xml version="1.0" encoding="UTF-8"?>
<svg width="31px" height="30px" viewBox="0 0 31 30" version="1.1" xmlns="http://www.w3.org/2000/svg" xmlns:xlink="http://www.w3.org/1999/xlink">
    <title>step-checkmark-dim</title>
    <g id="step-checkmark-dim" stroke="none" stroke-width="1" fill="none" fill-rule="evenodd" fill-opacity="0.4">
        <path d="M15.4328613,27.9428711 C17.1825358,27.9428711 18.826416,27.6112467 20.364502,26.947998 C21.9025879,26.2847493 23.2596029,25.3671875 24.4355469,24.1953125 C25.6114909,23.0234375 26.5310872,21.6664225 27.1943359,20.1242676 C27.8575846,18.5821126 28.189209,16.9361979 28.189209,15.1865234 C28.189209,13.444987 27.8575846,11.8031413 27.1943359,10.2609863 C26.5310872,8.71883138 25.6114909,7.36181641 24.4355469,6.18994141 C23.2596029,5.01806641 21.9005534,4.09847005 20.3583984,3.43115234 C18.8162435,2.76383464 17.1703288,2.43017578 15.4206543,2.43017578 C13.6791178,2.43017578 12.0372721,2.76383464 10.4951172,3.43115234 C8.95296224,4.09847005 7.59594727,5.01806641 6.42407227,6.18994141 C5.25219727,7.36181641 4.33463542,8.71883138 3.67138672,10.2609863 C3.00813802,11.8031413 2.67651367,13.444987 2.67651367,15.1865234 C2.67651367,16.9361979 3.00813802,18.5821126 3.67138672,20.1242676 C4.33463542,21.6664225 5.25423177,23.0234375 6.43017578,24.1953125 C7.60611979,25.3671875 8.96313477,26.2847493 10.5012207,26.947998 C12.0393066,27.6112467 13.6831868,27.9428711 15.4328613,27.9428711 Z M14.0778809,21.265625 C13.8256022,21.265625 13.5957031,21.2106934 13.3881836,21.1008301 C13.1806641,20.9909668 12.9873861,20.8221029 12.8083496,20.5942383 L9.87866211,17.0664062 C9.7565918,16.9117839 9.66503906,16.759196 9.60400391,16.6086426 C9.54296875,16.4580892 9.51245117,16.2973633 9.51245117,16.1264648 C9.51245117,15.7765299 9.63248698,15.4815267 9.87255859,15.2414551 C10.1126302,15.0013835 10.4076335,14.8813477 10.7575684,14.8813477 C10.9610189,14.8813477 11.1461589,14.9240723 11.3129883,15.0095215 C11.4798177,15.0949707 11.6446126,15.2353516 11.807373,15.4306641 L14.0412598,18.2260742 L18.9484863,10.4135742 C19.2414551,9.94156901 19.607666,9.70556641 20.0471191,9.70556641 C20.380778,9.70556641 20.6778158,9.81542969 20.9382324,10.0351562 C21.1986491,10.2548828 21.3288574,10.5356445 21.3288574,10.8774414 C21.3288574,11.0320638 21.2983398,11.1866862 21.2373047,11.3413086 C21.1762695,11.495931 21.0969238,11.6464844 20.9992676,11.7929688 L15.310791,20.5698242 C15.1561686,20.7976888 14.9750977,20.9706217 14.7675781,21.088623 C14.5600586,21.2066243 14.3301595,21.265625 14.0778809,21.265625 Z" id="ô€£" fill="#000000" fill-rule="nonzero"></path>
    </g>
</svg>