<?xml version="1.0" encoding="UTF-8"?>
<svg width="31px" height="30px" viewBox="0 0 31 30" version="1.1" xmlns="http://www.w3.org/2000/svg" xmlns:xlink="http://www.w3.org/1999/xlink">
    <title>step.5</title>
    <g id="step.5" stroke="none" stroke-width="1" fill="none" fill-rule="evenodd">
        <path d="M15.4328613,27.9428711 C17.1825358,27.9428711 18.826416,27.6112467 20.364502,26.947998 C21.9025879,26.2847493 23.2596029,25.3671875 24.4355469,24.1953125 C25.6114909,23.0234375 26.5310872,21.6664225 27.1943359,20.1242676 C27.8575846,18.5821126 28.189209,16.9361979 28.189209,15.1865234 C28.189209,13.444987 27.8575846,11.8031413 27.1943359,10.2609863 C26.5310872,8.71883138 25.6114909,7.36181641 24.4355469,6.18994141 C23.2596029,5.01806641 21.9005534,4.09847005 20.3583984,3.43115234 C18.8162435,2.76383464 17.1703288,2.43017578 15.4206543,2.43017578 C13.6791178,2.43017578 12.0372721,2.76383464 10.4951172,3.43115234 C8.95296224,4.09847005 7.59594727,5.01806641 6.42407227,6.18994141 C5.25219727,7.36181641 4.33463542,8.71883138 3.67138672,10.2609863 C3.00813802,11.8031413 2.67651367,13.444987 2.67651367,15.1865234 C2.67651367,16.9361979 3.00813802,18.5821126 3.67138672,20.1242676 C4.33463542,21.6664225 5.25423177,23.0234375 6.43017578,24.1953125 C7.60611979,25.3671875 8.96313477,26.2847493 10.5012207,26.947998 C12.0393066,27.6112467 13.6831868,27.9428711 15.4328613,27.9428711 Z M15.4328613,25.0864258 C14.0656738,25.0864258 12.7839355,24.8300781 11.5876465,24.3173828 C10.3913574,23.8046875 9.34155273,23.0966797 8.43823242,22.1933594 C7.53491211,21.2900391 6.8269043,20.2402344 6.31420898,19.0439453 C5.80151367,17.8476562 5.54516602,16.561849 5.54516602,15.1865234 C5.54516602,13.8193359 5.80151367,12.5375977 6.31420898,11.3413086 C6.8269043,10.1450195 7.5328776,9.09318034 8.43212891,8.18579102 C9.33138021,7.27840169 10.3791504,6.57039388 11.5754395,6.06176758 C12.7717285,5.55314128 14.0534668,5.29882812 15.4206543,5.29882812 C16.7959798,5.29882812 18.0817871,5.55314128 19.2780762,6.06176758 C20.4743652,6.57039388 21.5262044,7.27840169 22.4335938,8.18579102 C23.3409831,9.09318034 24.0489909,10.1450195 24.5576172,11.3413086 C25.0662435,12.5375977 25.3205566,13.8193359 25.3205566,15.1865234 C25.3205566,16.561849 25.0662435,17.8476562 24.5576172,19.0439453 C24.0489909,20.2402344 23.3430176,21.2900391 22.4396973,22.1933594 C21.536377,23.0966797 20.4845378,23.8046875 19.2841797,24.3173828 C18.0838216,24.8300781 16.8000488,25.0864258 15.4328613,25.0864258 Z M15.3718262,20.9238281 C16.6901855,20.9238281 17.7521973,20.5657552 18.5578613,19.8496094 C19.3635254,19.1334635 19.7663574,18.1731771 19.7663574,16.96875 C19.7663574,15.8945312 19.4245605,15.027832 18.7409668,14.3686523 C18.057373,13.7094727 17.1662598,13.3798828 16.067627,13.3798828 C15.5549316,13.3798828 15.0727539,13.4795736 14.6210938,13.6789551 C14.1694336,13.8783366 13.8418783,14.1326497 13.6384277,14.4418945 L13.5041504,14.4418945 L13.736084,11.6953125 L18.2648926,11.6953125 C18.5741374,11.6953125 18.822347,11.6078288 19.0095215,11.4328613 C19.196696,11.2578939 19.2902832,11.0198568 19.2902832,10.71875 C19.2902832,10.4257812 19.1987305,10.1938477 19.015625,10.0229492 C18.8325195,9.85205078 18.5822754,9.76660156 18.2648926,9.76660156 L13.2111816,9.76660156 C12.7635905,9.76660156 12.4034831,9.89070638 12.1308594,10.138916 C11.8582357,10.3871257 11.7056478,10.71875 11.6730957,11.1337891 L11.404541,14.7592773 C11.3719889,15.2068685 11.4757487,15.5547689 11.7158203,15.8029785 C11.9558919,16.0511882 12.3078613,16.175293 12.7717285,16.175293 C13.0402832,16.175293 13.2640788,16.1427409 13.4431152,16.0776367 C13.6221517,16.0125326 13.8215332,15.9108073 14.0412598,15.7724609 C14.2854004,15.5771484 14.517334,15.4367676 14.7370605,15.3513184 C14.9567871,15.2658691 15.2049967,15.2231445 15.4816895,15.2231445 C16.0025228,15.2231445 16.4236654,15.3879395 16.7451172,15.7175293 C17.066569,16.0471191 17.2272949,16.4845378 17.2272949,17.0297852 C17.2272949,17.5668945 17.0441895,18.0144857 16.6779785,18.3725586 C16.3117676,18.7306315 15.8560384,18.909668 15.310791,18.909668 C14.8794759,18.909668 14.5010579,18.8181152 14.1755371,18.6350098 C13.8500163,18.4519043 13.5936686,18.2016602 13.4064941,17.8842773 C13.2844238,17.7215169 13.1379395,17.5933431 12.967041,17.4997559 C12.7961426,17.4061686 12.584554,17.359375 12.3322754,17.359375 C11.9904785,17.359375 11.7219238,17.4529622 11.5266113,17.6401367 C11.3312988,17.8273112 11.2336426,18.0673828 11.2336426,18.3603516 C11.2336426,18.5719401 11.2784017,18.7794596 11.3679199,18.9829102 C11.6039225,19.5851237 12.0698242,20.0591634 12.765625,20.4050293 C13.4614258,20.7508952 14.3301595,20.9238281 15.3718262,20.9238281 Z" id="ô€‚" fill="#E2B437" fill-rule="nonzero"></path>
    </g>
</svg>