<?xml version="1.0" encoding="UTF-8"?>
<svg width="31px" height="30px" viewBox="0 0 31 30" version="1.1" xmlns="http://www.w3.org/2000/svg" xmlns:xlink="http://www.w3.org/1999/xlink">
    <title>step.4</title>
    <g id="step.4" stroke="none" stroke-width="1" fill="none" fill-rule="evenodd">
        <path d="M15.4328613,27.9428711 C17.1825358,27.9428711 18.826416,27.6112467 20.364502,26.947998 C21.9025879,26.2847493 23.2596029,25.3671875 24.4355469,24.1953125 C25.6114909,23.0234375 26.5310872,21.6664225 27.1943359,20.1242676 C27.8575846,18.5821126 28.189209,16.9361979 28.189209,15.1865234 C28.189209,13.444987 27.8575846,11.8031413 27.1943359,10.2609863 C26.5310872,8.71883138 25.6114909,7.36181641 24.4355469,6.18994141 C23.2596029,5.01806641 21.9005534,4.09847005 20.3583984,3.43115234 C18.8162435,2.76383464 17.1703288,2.43017578 15.4206543,2.43017578 C13.6791178,2.43017578 12.0372721,2.76383464 10.4951172,3.43115234 C8.95296224,4.09847005 7.59594727,5.01806641 6.42407227,6.18994141 C5.25219727,7.36181641 4.33463542,8.71883138 3.67138672,10.2609863 C3.00813802,11.8031413 2.67651367,13.444987 2.67651367,15.1865234 C2.67651367,16.9361979 3.00813802,18.5821126 3.67138672,20.1242676 C4.33463542,21.6664225 5.25423177,23.0234375 6.43017578,24.1953125 C7.60611979,25.3671875 8.96313477,26.2847493 10.5012207,26.947998 C12.0393066,27.6112467 13.6831868,27.9428711 15.4328613,27.9428711 Z M15.4328613,25.0864258 C14.0656738,25.0864258 12.7839355,24.8300781 11.5876465,24.3173828 C10.3913574,23.8046875 9.34155273,23.0966797 8.43823242,22.1933594 C7.53491211,21.2900391 6.8269043,20.2402344 6.31420898,19.0439453 C5.80151367,17.8476562 5.54516602,16.561849 5.54516602,15.1865234 C5.54516602,13.8193359 5.80151367,12.5375977 6.31420898,11.3413086 C6.8269043,10.1450195 7.5328776,9.09318034 8.43212891,8.18579102 C9.33138021,7.27840169 10.3791504,6.57039388 11.5754395,6.06176758 C12.7717285,5.55314128 14.0534668,5.29882812 15.4206543,5.29882812 C16.7959798,5.29882812 18.0817871,5.55314128 19.2780762,6.06176758 C20.4743652,6.57039388 21.5262044,7.27840169 22.4335938,8.18579102 C23.3409831,9.09318034 24.0489909,10.1450195 24.5576172,11.3413086 C25.0662435,12.5375977 25.3205566,13.8193359 25.3205566,15.1865234 C25.3205566,16.561849 25.0662435,17.8476562 24.5576172,19.0439453 C24.0489909,20.2402344 23.3430176,21.2900391 22.4396973,22.1933594 C21.536377,23.0966797 20.4845378,23.8046875 19.2841797,24.3173828 C18.0838216,24.8300781 16.8000488,25.0864258 15.4328613,25.0864258 Z M17.0197754,20.7529297 C17.3778483,20.7529297 17.6606445,20.6451009 17.8681641,20.4294434 C18.0756836,20.2137858 18.1794434,19.9065755 18.1794434,19.5078125 L18.1794434,18.6533203 L18.838623,18.6533203 C19.1722819,18.6533203 19.4408366,18.5597331 19.6442871,18.3725586 C19.8477376,18.1853841 19.9494629,17.9371745 19.9494629,17.6279297 C19.9494629,17.3105469 19.8497721,17.0582682 19.6503906,16.8710938 C19.4510091,16.6839193 19.1844889,16.590332 18.8508301,16.590332 L18.1794434,16.590332 L18.1794434,11.1582031 C18.1794434,10.6617839 17.9983724,10.2569173 17.6362305,9.94360352 C17.2740885,9.63028971 16.8163249,9.47363281 16.2629395,9.47363281 C15.68514,9.47363281 15.2151693,9.58146159 14.8530273,9.79711914 C14.4908854,10.0127767 14.151123,10.3728841 13.8337402,10.8774414 C13.5651855,11.2924805 13.2905273,11.7176921 13.0097656,12.1530762 C12.7290039,12.5884603 12.4523112,13.0218099 12.1796875,13.453125 C11.9070638,13.8844401 11.6466471,14.3015137 11.3984375,14.7043457 C11.1502279,15.1071777 10.9243978,15.4835612 10.7209473,15.8334961 C10.5907389,16.0857747 10.4971517,16.3177083 10.4401855,16.5292969 C10.3832194,16.7408854 10.3547363,16.952474 10.3547363,17.1640625 C10.3547363,17.6116536 10.4991862,17.9717611 10.7880859,18.2443848 C11.0769857,18.5170085 11.4696452,18.6533203 11.9660645,18.6533203 L15.8845215,18.6533203 L15.8845215,19.5078125 C15.8845215,19.9065755 15.9882812,20.2137858 16.1958008,20.4294434 C16.4033203,20.6451009 16.6779785,20.7529297 17.0197754,20.7529297 Z M15.8845215,16.590332 L12.6862793,16.590332 L12.6862793,16.5048828 C12.8409017,16.2363281 13.0118001,15.9413249 13.1989746,15.619873 C13.3861491,15.2984212 13.5875651,14.9606934 13.8032227,14.6066895 C14.0188802,14.2526855 14.2386068,13.8946126 14.4624023,13.5324707 C14.6861979,13.1703288 14.912028,12.8102214 15.1398926,12.4521484 C15.3677572,12.0940755 15.5834147,11.7441406 15.7868652,11.4023438 L15.8845215,11.4023438 L15.8845215,16.590332 Z" id="ô€€" fill="#E2B437" fill-rule="nonzero"></path>
    </g>
</svg>