<?xml version="1.0" encoding="UTF-8"?>
<svg width="31px" height="30px" viewBox="0 0 31 30" version="1.1" xmlns="http://www.w3.org/2000/svg" xmlns:xlink="http://www.w3.org/1999/xlink">
    <title>step.checkmark</title>
    <g id="step.checkmark" stroke="none" stroke-width="1" fill="none" fill-rule="evenodd">
        <path d="M15.4328613,27.9428711 C17.1825358,27.9428711 18.826416,27.6112467 20.364502,26.947998 C21.9025879,26.2847493 23.2596029,25.3671875 24.4355469,24.1953125 C25.6114909,23.0234375 26.5310872,21.6664225 27.1943359,20.1242676 C27.8575846,18.5821126 28.189209,16.9361979 28.189209,15.1865234 C28.189209,13.444987 27.8575846,11.8031413 27.1943359,10.2609863 C26.5310872,8.71883138 25.6114909,7.36181641 24.4355469,6.18994141 C23.2596029,5.01806641 21.9005534,4.09847005 20.3583984,3.43115234 C18.8162435,2.76383464 17.1703288,2.43017578 15.4206543,2.43017578 C13.6791178,2.43017578 12.0372721,2.76383464 10.4951172,3.43115234 C8.95296224,4.09847005 7.59594727,5.01806641 6.42407227,6.18994141 C5.25219727,7.36181641 4.33463542,8.71883138 3.67138672,10.2609863 C3.00813802,11.8031413 2.67651367,13.444987 2.67651367,15.1865234 C2.67651367,16.9361979 3.00813802,18.5821126 3.67138672,20.1242676 C4.33463542,21.6664225 5.25423177,23.0234375 6.43017578,24.1953125 C7.60611979,25.3671875 8.96313477,26.2847493 10.5012207,26.947998 C12.0393066,27.6112467 13.6831868,27.9428711 15.4328613,27.9428711 Z M15.4328613,25.0864258 C14.0656738,25.0864258 12.7839355,24.8300781 11.5876465,24.3173828 C10.3913574,23.8046875 9.34155273,23.0966797 8.43823242,22.1933594 C7.53491211,21.2900391 6.8269043,20.2402344 6.31420898,19.0439453 C5.80151367,17.8476562 5.54516602,16.561849 5.54516602,15.1865234 C5.54516602,13.8193359 5.80151367,12.5375977 6.31420898,11.3413086 C6.8269043,10.1450195 7.5328776,9.09318034 8.43212891,8.18579102 C9.33138021,7.27840169 10.3791504,6.57039388 11.5754395,6.06176758 C12.7717285,5.55314128 14.0534668,5.29882812 15.4206543,5.29882812 C16.7959798,5.29882812 18.0817871,5.55314128 19.2780762,6.06176758 C20.4743652,6.57039388 21.5262044,7.27840169 22.4335938,8.18579102 C23.3409831,9.09318034 24.0489909,10.1450195 24.5576172,11.3413086 C25.0662435,12.5375977 25.3205566,13.8193359 25.3205566,15.1865234 C25.3205566,16.561849 25.0662435,17.8476562 24.5576172,19.0439453 C24.0489909,20.2402344 23.3430176,21.2900391 22.4396973,22.1933594 C21.536377,23.0966797 20.4845378,23.8046875 19.2841797,24.3173828 C18.0838216,24.8300781 16.8000488,25.0864258 15.4328613,25.0864258 Z M14.126709,20.9970703 C14.6068522,20.9970703 14.9934082,20.7814128 15.286377,20.3500977 L20.7429199,11.9394531 C20.8324382,11.8011068 20.9056803,11.6586914 20.9626465,11.512207 C21.0196126,11.3657227 21.0480957,11.2233073 21.0480957,11.0849609 C21.0480957,10.7513021 20.9260254,10.4807129 20.6818848,10.2731934 C20.4377441,10.0656738 20.1569824,9.96191406 19.8395996,9.96191406 C19.4245605,9.96191406 19.0746257,10.1897786 18.7897949,10.6455078 L14.0900879,18.128418 L11.9416504,15.4428711 C11.787028,15.2475586 11.6303711,15.1112467 11.4716797,15.0339355 C11.3129883,14.9566243 11.1359863,14.9179688 10.9406738,14.9179688 C10.623291,14.9179688 10.3486328,15.031901 10.1166992,15.2597656 C9.88476562,15.4876302 9.76879883,15.7683919 9.76879883,16.1020508 C9.76879883,16.3950195 9.88273112,16.6879883 10.1105957,16.980957 L12.9182129,20.3623047 C13.0972493,20.5738932 13.2823893,20.7325846 13.4736328,20.8383789 C13.6648763,20.9441732 13.8825684,20.9970703 14.126709,20.9970703 Z" id="ô€¢" fill="#E2B437" fill-rule="nonzero"></path>
    </g>
</svg>