<?xml version="1.0" encoding="UTF-8"?>
<svg width="31px" height="30px" viewBox="0 0 31 30" version="1.1" xmlns="http://www.w3.org/2000/svg" xmlns:xlink="http://www.w3.org/1999/xlink">
    <title>step.6</title>
    <g id="step.6" stroke="none" stroke-width="1" fill="none" fill-rule="evenodd">
        <path d="M15.4328613,27.9428711 C17.1825358,27.9428711 18.826416,27.6112467 20.364502,26.947998 C21.9025879,26.2847493 23.2596029,25.3671875 24.4355469,24.1953125 C25.6114909,23.0234375 26.5310872,21.6664225 27.1943359,20.1242676 C27.8575846,18.5821126 28.189209,16.9361979 28.189209,15.1865234 C28.189209,13.444987 27.8575846,11.8031413 27.1943359,10.2609863 C26.5310872,8.71883138 25.6114909,7.36181641 24.4355469,6.18994141 C23.2596029,5.01806641 21.9005534,4.09847005 20.3583984,3.43115234 C18.8162435,2.76383464 17.1703288,2.43017578 15.4206543,2.43017578 C13.6791178,2.43017578 12.0372721,2.76383464 10.4951172,3.43115234 C8.95296224,4.09847005 7.59594727,5.01806641 6.42407227,6.18994141 C5.25219727,7.36181641 4.33463542,8.71883138 3.67138672,10.2609863 C3.00813802,11.8031413 2.67651367,13.444987 2.67651367,15.1865234 C2.67651367,16.9361979 3.00813802,18.5821126 3.67138672,20.1242676 C4.33463542,21.6664225 5.25423177,23.0234375 6.43017578,24.1953125 C7.60611979,25.3671875 8.96313477,26.2847493 10.5012207,26.947998 C12.0393066,27.6112467 13.6831868,27.9428711 15.4328613,27.9428711 Z M15.4328613,25.0864258 C14.0656738,25.0864258 12.7839355,24.8300781 11.5876465,24.3173828 C10.3913574,23.8046875 9.34155273,23.0966797 8.43823242,22.1933594 C7.53491211,21.2900391 6.8269043,20.2402344 6.31420898,19.0439453 C5.80151367,17.8476562 5.54516602,16.561849 5.54516602,15.1865234 C5.54516602,13.8193359 5.80151367,12.5375977 6.31420898,11.3413086 C6.8269043,10.1450195 7.5328776,9.09318034 8.43212891,8.18579102 C9.33138021,7.27840169 10.3791504,6.57039388 11.5754395,6.06176758 C12.7717285,5.55314128 14.0534668,5.29882812 15.4206543,5.29882812 C16.7959798,5.29882812 18.0817871,5.55314128 19.2780762,6.06176758 C20.4743652,6.57039388 21.5262044,7.27840169 22.4335938,8.18579102 C23.3409831,9.09318034 24.0489909,10.1450195 24.5576172,11.3413086 C25.0662435,12.5375977 25.3205566,13.8193359 25.3205566,15.1865234 C25.3205566,16.561849 25.0662435,17.8476562 24.5576172,19.0439453 C24.0489909,20.2402344 23.3430176,21.2900391 22.4396973,22.1933594 C21.536377,23.0966797 20.4845378,23.8046875 19.2841797,24.3173828 C18.0838216,24.8300781 16.8000488,25.0864258 15.4328613,25.0864258 Z M15.5305176,20.9238281 C16.8244629,20.9238281 17.8763021,20.5759277 18.6860352,19.880127 C19.4957682,19.1843262 19.9006348,18.2220052 19.9006348,16.9931641 C19.9006348,16.2607422 19.7399089,15.6381836 19.418457,15.1254883 C19.0970052,14.612793 18.6677246,14.218099 18.1306152,13.9414062 C17.5935059,13.6647135 16.9994303,13.5263672 16.3483887,13.5263672 C15.6322428,13.5263672 15.0361328,13.6789551 14.5600586,13.9841309 C14.0839844,14.2893066 13.744222,14.6453451 13.5407715,15.0522461 L13.4309082,15.0522461 L13.4309082,15.0522461 C13.4309082,15.003418 13.4288737,14.9586589 13.4248047,14.9179688 C13.4207357,14.8772786 13.4187012,14.8365885 13.4187012,14.7958984 C13.4187012,13.7867839 13.6343587,12.9770508 14.0656738,12.3666992 C14.4969889,11.7563477 15.0666504,11.4511719 15.7746582,11.4511719 C16.1327311,11.4511719 16.4256999,11.5183105 16.6535645,11.6525879 C16.881429,11.7868652 17.0808105,11.9394531 17.251709,12.1103516 C17.4307454,12.273112 17.6036784,12.4012858 17.7705078,12.494873 C17.9373372,12.5884603 18.1428223,12.6352539 18.3869629,12.6352539 C18.6717936,12.6352539 18.9077962,12.5518392 19.0949707,12.3850098 C19.2821452,12.2181803 19.3757324,12.0004883 19.3757324,11.7319336 C19.3757324,11.6017253 19.3594564,11.4816895 19.3269043,11.3718262 C19.2943522,11.2619629 19.2455241,11.1500651 19.1804199,11.0361328 C19.0339355,10.7431641 18.7979329,10.4807129 18.4724121,10.2487793 C18.1468913,10.0168457 17.7583008,9.82967122 17.3066406,9.68725586 C16.8549805,9.54484049 16.3646647,9.47363281 15.8356934,9.47363281 C14.2976074,9.47363281 13.0911458,9.96801758 12.2163086,10.9567871 C11.3414714,11.9455566 10.9040527,13.4042969 10.9040527,15.3330078 C10.9040527,16.1305339 10.9752604,16.8344727 11.1176758,17.4448242 C11.2600911,18.0551758 11.4655762,18.5719401 11.7341309,18.9951172 C12.1410319,19.6542969 12.6740723,20.1405436 13.333252,20.4538574 C13.9924316,20.7671712 14.7248535,20.9238281 15.5305176,20.9238281 Z M15.4084473,18.9829102 C14.8631999,18.9829102 14.4135742,18.8038737 14.0595703,18.4458008 C13.7055664,18.0877279 13.5285645,17.6279297 13.5285645,17.0664062 C13.5285645,16.5292969 13.7035319,16.0857747 14.0534668,15.7358398 C14.4034017,15.3859049 14.8591309,15.2109375 15.4206543,15.2109375 C15.9740397,15.2109375 16.4256999,15.3838704 16.7756348,15.7297363 C17.1255697,16.0756022 17.3005371,16.5211589 17.3005371,17.0664062 C17.3005371,17.6442057 17.1296387,18.1080729 16.7878418,18.4580078 C16.4460449,18.8079427 15.9862467,18.9829102 15.4084473,18.9829102 Z" id="ô€„" fill="#E2B437" fill-rule="nonzero"></path>
    </g>
</svg>