<?xml version="1.0" encoding="UTF-8"?>
<svg width="31px" height="30px" viewBox="0 0 31 30" version="1.1" xmlns="http://www.w3.org/2000/svg" xmlns:xlink="http://www.w3.org/1999/xlink">
    <title>step.2</title>
    <g id="step.2" stroke="none" stroke-width="1" fill="none" fill-rule="evenodd">
        <path d="M15.4328613,27.9428711 C17.1825358,27.9428711 18.826416,27.6112467 20.364502,26.947998 C21.9025879,26.2847493 23.2596029,25.3671875 24.4355469,24.1953125 C25.6114909,23.0234375 26.5310872,21.6664225 27.1943359,20.1242676 C27.8575846,18.5821126 28.189209,16.9361979 28.189209,15.1865234 C28.189209,13.444987 27.8575846,11.8031413 27.1943359,10.2609863 C26.5310872,8.71883138 25.6114909,7.36181641 24.4355469,6.18994141 C23.2596029,5.01806641 21.9005534,4.09847005 20.3583984,3.43115234 C18.8162435,2.76383464 17.1703288,2.43017578 15.4206543,2.43017578 C13.6791178,2.43017578 12.0372721,2.76383464 10.4951172,3.43115234 C8.95296224,4.09847005 7.59594727,5.01806641 6.42407227,6.18994141 C5.25219727,7.36181641 4.33463542,8.71883138 3.67138672,10.2609863 C3.00813802,11.8031413 2.67651367,13.444987 2.67651367,15.1865234 C2.67651367,16.9361979 3.00813802,18.5821126 3.67138672,20.1242676 C4.33463542,21.6664225 5.25423177,23.0234375 6.43017578,24.1953125 C7.60611979,25.3671875 8.96313477,26.2847493 10.5012207,26.947998 C12.0393066,27.6112467 13.6831868,27.9428711 15.4328613,27.9428711 Z M15.4328613,25.0864258 C14.0656738,25.0864258 12.7839355,24.8300781 11.5876465,24.3173828 C10.3913574,23.8046875 9.34155273,23.0966797 8.43823242,22.1933594 C7.53491211,21.2900391 6.8269043,20.2402344 6.31420898,19.0439453 C5.80151367,17.8476562 5.54516602,16.561849 5.54516602,15.1865234 C5.54516602,13.8193359 5.80151367,12.5375977 6.31420898,11.3413086 C6.8269043,10.1450195 7.5328776,9.09318034 8.43212891,8.18579102 C9.33138021,7.27840169 10.3791504,6.57039388 11.5754395,6.06176758 C12.7717285,5.55314128 14.0534668,5.29882812 15.4206543,5.29882812 C16.7959798,5.29882812 18.0817871,5.55314128 19.2780762,6.06176758 C20.4743652,6.57039388 21.5262044,7.27840169 22.4335938,8.18579102 C23.3409831,9.09318034 24.0489909,10.1450195 24.5576172,11.3413086 C25.0662435,12.5375977 25.3205566,13.8193359 25.3205566,15.1865234 C25.3205566,16.561849 25.0662435,17.8476562 24.5576172,19.0439453 C24.0489909,20.2402344 23.3430176,21.2900391 22.4396973,22.1933594 C21.536377,23.0966797 20.4845378,23.8046875 19.2841797,24.3173828 C18.0838216,24.8300781 16.8000488,25.0864258 15.4328613,25.0864258 Z M18.802002,20.6308594 C19.1437988,20.6308594 19.4204915,20.5352376 19.6320801,20.3439941 C19.8436686,20.1527507 19.9494629,19.8943685 19.9494629,19.5688477 C19.9494629,19.2351888 19.8436686,18.9747721 19.6320801,18.7875977 C19.4204915,18.6004232 19.1437988,18.5068359 18.802002,18.5068359 L15.2009277,18.5068359 L15.2009277,18.4091797 L17.5202637,16.0410156 C18.1306152,15.4469401 18.6046549,14.8894857 18.9423828,14.3686523 C19.2801107,13.847819 19.4489746,13.2740885 19.4489746,12.6474609 C19.4489746,11.6953125 19.0847982,10.928304 18.3564453,10.3464355 C17.6280924,9.76456706 16.6657715,9.47363281 15.4694824,9.47363281 C14.541748,9.47363281 13.7157389,9.69742839 12.9914551,10.1450195 C12.2671712,10.5926107 11.799235,11.1622721 11.5876465,11.8540039 C11.5469564,11.9597982 11.5205078,12.0615234 11.5083008,12.1591797 C11.4960938,12.2568359 11.4899902,12.3504232 11.4899902,12.4399414 C11.4899902,12.7573242 11.59375,13.0055339 11.8012695,13.1845703 C12.0087891,13.3636068 12.2793783,13.453125 12.6130371,13.453125 C12.8897298,13.453125 13.1074219,13.3880208 13.2661133,13.2578125 C13.4248047,13.1276042 13.5651855,12.9729818 13.6872559,12.7939453 C13.8418783,12.4847005 14.0555013,12.2019043 14.328125,11.9455566 C14.6007487,11.689209 14.9730632,11.5610352 15.4450684,11.5610352 C15.9007975,11.5610352 16.264974,11.6790365 16.5375977,11.9150391 C16.8102214,12.1510417 16.9465332,12.4684245 16.9465332,12.8671875 C16.9465332,13.2252604 16.8163249,13.5731608 16.5559082,13.9108887 C16.2954915,14.2486165 15.9699707,14.6046549 15.5793457,14.9790039 L12.0515137,18.53125 C11.8480632,18.7102865 11.7117513,18.8852539 11.6425781,19.0561523 C11.5734049,19.2270508 11.5388184,19.4060872 11.5388184,19.5932617 C11.5388184,19.9025065 11.6425781,20.1527507 11.8500977,20.3439941 C12.0576172,20.5352376 12.3322754,20.6308594 12.6740723,20.6308594 L18.802002,20.6308594 Z" id="􀀼" fill="#E2B437" fill-rule="nonzero"></path>
    </g>
</svg>